<?xml version="1.0" encoding="utf-8"?>
<!-- Generator: Adobe Illustrator 26.4.1, SVG Export Plug-In . SVG Version: 6.00 Build 0)  -->
<svg version="1.1" id="Capa_1" xmlns="http://www.w3.org/2000/svg" xmlns:xlink="http://www.w3.org/1999/xlink" x="0px" y="0px"
	 viewBox="0 0 98.1 99" enable-background="new 0 0 98.1 99" xml:space="preserve">
<g>
	<path d="M45.3,42.4c-4.5-5.3-5-12.1,0.2-18.1c4.1-4.5,16.1-16.5,20.6-20.6c5.6-5.1,14.3-4.8,19.8,0.5c2.7,2.6,5.3,5.2,7.9,7.9
		c5.6,5.9,5.6,14.8,0,20.6C89.9,36.5,78.5,48,74.6,51.8c-4.4,4.5-13.3,5-18.6,1.3c0.7-0.7,7.6-7.6,7.6-7.6c1.7,1.2,4.3,0,5.4-1.2
		c3.6-3.5,13.9-14.7,17.5-18.3c2.2-2.2,2.2-5.1,0-7.3c-2.3-2.3-4.6-4.6-6.9-6.9c-2.4-2.4-5.2-2.4-7.5,0C68.4,15.2,57.3,26.4,53.7,30
		c-2.9,2.8-0.7,4.8-0.7,4.8S47.8,39.9,45.3,42.4z"/>
	<path d="M34.2,69.7c-2.4,0-5.7-3.3-5.5-5.6c0.1-0.9,0.5-2,1.1-2.6c6.4-6.5,24.9-24.9,31.3-31.4c1.7-1.7,3.9-1.6,5.6,0
		c0.5,0.5,1,0.9,1.4,1.4c1.8,1.8,1.8,4,0,5.8C61.8,43.7,43.4,62,37,68.4C36.3,69.2,35.4,69.7,34.2,69.7z"/>
	<path d="M52.7,56.3c4.5,5.3,5,12.1-0.2,18.1C48.3,79,36.4,90.9,31.8,95.1c-5.6,5.1-14.3,4.8-19.8-0.5c-2.7-2.6-5.3-5.2-7.9-7.9
		c-5.6-5.9-5.6-14.8,0-20.6c4-3.9,15.4-15.4,19.3-19.1c4.4-4.5,13.3-5,18.6-1.3c-0.7,0.7-7.6,7.6-7.6,7.6c-1.7-1.2-4.3,0-5.4,1.2
		C25.5,58,15.2,69.2,11.6,72.8c-2.2,2.2-2.2,5.1,0,7.3c2.3,2.3,4.6,4.6,6.9,6.9c2.4,2.4,5.2,2.4,7.5,0c3.6-3.5,14.7-14.7,18.3-18.3
		C47.1,66,45,64,45,64S50.2,58.8,52.7,56.3z"/>
</g>
</svg>
